<?xml version="1.0" standalone="no"?>
<!DOCTYPE svg PUBLIC "-//W3C//DTD SVG 20010904//EN"
 "http://www.w3.org/TR/2001/REC-SVG-20010904/DTD/svg10.dtd">
<svg version="1.0" xmlns="http://www.w3.org/2000/svg"
 width="632.000000pt" height="256.000000pt" viewBox="0 0 632.000000 256.000000"
 preserveAspectRatio="xMidYMid meet">

<g transform="translate(0.000000,256.000000) scale(0.100000,-0.100000)"
fill="#000000" stroke="none">
<path d="M1211 2239 c-62 -58 -218 -137 -331 -168 -100 -27 -241 -51 -301 -51
l-49 0 0 -366 0 -365 230 2 c127 1 229 4 228 8 -2 3 -16 33 -33 66 -26 52 -30
71 -30 140 1 100 31 173 102 241 69 68 136 96 236 99 74 2 83 5 104 29 13 15
23 34 23 42 0 8 5 14 10 14 6 0 10 -6 10 -13 0 -18 43 -57 63 -57 28 0 28 -18
0 -32 -38 -19 -37 -30 8 -61 34 -23 42 -25 59 -15 11 7 23 22 26 32 6 18 8 18
26 -7 11 -15 26 -27 34 -27 21 0 17 -18 -5 -25 -11 -3 -22 -19 -26 -35 -4 -17
-11 -30 -15 -30 -5 0 -2 -17 7 -37 10 -24 16 -68 17 -118 0 -78 -8 -106 -62
-207 -1 -3 103 -7 232 -7 l236 -2 0 364 0 365 -87 7 c-239 19 -453 96 -590
212 -34 29 -64 53 -65 53 -2 -1 -27 -23 -57 -51z m310 -456 c13 -16 12 -17 -3
-4 -10 7 -18 15 -18 17 0 8 8 3 21 -13z m106 -185 c-3 -8 -6 -5 -6 6 -1 11 2
17 5 13 3 -3 4 -12 1 -19z m0 -200 c-3 -8 -6 -5 -6 6 -1 11 2 17 5 13 3 -3 4
-12 1 -19z"/>
<path d="M3840 2167 c-90 -27 -135 -53 -184 -108 -44 -48 -56 -76 -56 -132 0
-129 86 -220 247 -262 71 -19 231 -19 298 -1 112 30 199 94 231 172 18 43 18
123 -1 167 -61 146 -323 226 -535 164z m295 -21 c66 -18 125 -44 125 -55 0
-18 -77 -21 -131 -5 -81 24 -152 28 -185 11 -47 -24 -110 -30 -166 -17 l-51
13 39 20 c21 11 59 26 84 33 61 17 224 17 285 0z m-35 -76 c58 -23 109 -25
162 -6 35 13 38 12 61 -13 26 -27 47 -63 47 -79 0 -5 -37 -21 -81 -36 -67 -22
-84 -24 -98 -14 -8 7 -47 39 -85 71 -38 31 -78 57 -89 57 -11 0 -42 -14 -69
-31 -60 -39 -95 -34 -57 8 61 66 120 78 209 43z m-350 -5 c23 -8 65 -15 93
-15 l50 0 -21 -23 c-17 -18 -19 -26 -10 -35 19 -19 56 -14 96 13 20 14 46 25
57 25 21 0 179 -123 189 -147 3 -6 -1 -17 -9 -23 -10 -8 -21 -4 -48 20 -47 41
-59 38 -18 -4 18 -19 30 -39 27 -45 -11 -17 -41 -13 -61 9 -10 11 -23 20 -28
20 -6 0 1 -13 16 -28 15 -16 24 -31 20 -35 -11 -12 -36 -8 -55 10 -20 18 -25
4 -6 -15 15 -15 4 -26 -17 -19 -8 4 -15 15 -15 26 0 12 -11 28 -25 37 -14 9
-25 22 -25 30 0 7 -12 17 -27 20 -16 4 -33 11 -39 15 -6 5 -22 9 -35 9 -52 0
-67 2 -149 27 -47 15 -87 28 -88 29 -14 10 57 114 78 114 4 0 27 -7 50 -15z
m-47 -149 c47 -14 60 -22 68 -44 9 -27 32 -44 128 -94 46 -24 62 -27 122 -24
38 2 76 10 85 17 9 7 24 18 33 24 68 41 82 53 90 76 7 20 22 29 70 44 34 10
64 15 68 12 13 -13 -30 -97 -65 -128 -165 -146 -540 -123 -647 39 -30 46 -45
108 -24 100 8 -3 40 -13 72 -22z m131 -25 c3 -5 15 -7 26 -4 11 3 26 0 34 -6
8 -7 20 -10 27 -9 7 2 18 -6 23 -18 5 -11 19 -25 30 -30 26 -11 27 -33 3 -48
-14 -9 -21 -7 -31 7 -7 9 -23 17 -35 17 -11 0 -21 5 -21 10 0 6 -9 10 -21 10
-13 0 -23 8 -26 21 -3 11 -11 18 -19 15 -16 -6 -38 19 -29 34 8 12 32 13 39 1z"/>
<path d="M5530 2141 c0 -28 -2 -29 -35 -24 -53 9 -85 -25 -85 -87 0 -53 18
-76 67 -86 30 -6 71 8 85 30 4 6 8 53 8 104 0 85 -1 92 -20 92 -15 0 -20 -7
-20 -29z m-16 -77 c9 -8 16 -24 16 -34 0 -18 -24 -50 -37 -50 -12 0 -43 33
-43 47 0 20 23 53 37 53 6 0 19 -7 27 -16z"/>
<path d="M4531 2095 c-16 -21 -21 -42 -21 -86 0 -52 2 -59 20 -59 18 0 20 7
20 54 0 56 17 83 45 72 11 -4 15 -21 15 -66 0 -57 1 -60 25 -60 24 0 25 3 25
59 0 62 7 75 34 65 12 -5 16 -20 16 -65 0 -52 2 -59 20 -59 18 0 20 7 20 68 0
84 -18 108 -72 98 -40 -8 -43 -8 -89 0 -31 5 -39 2 -58 -21z"/>
<path d="M4795 2094 c-80 -86 36 -207 122 -128 l28 26 -49 -6 c-47 -6 -76 4
-76 25 0 5 27 9 60 9 56 0 60 1 60 24 0 13 -9 35 -21 50 -29 37 -90 37 -124 0z
m93 -31 c2 -9 -8 -13 -33 -13 -33 0 -36 2 -25 15 15 18 51 16 58 -2z"/>
<path d="M4985 2095 c-21 -20 -25 -34 -25 -85 0 -57 1 -60 25 -60 22 0 24 4
27 58 3 50 6 57 26 60 16 3 22 10 22 28 0 33 -42 33 -75 -1z"/>
<path d="M5090 2096 c-34 -38 -33 -101 3 -132 16 -13 41 -24 56 -24 32 0 81
34 81 56 0 19 -46 18 -54 -1 -9 -24 -45 -18 -56 10 -20 52 27 100 59 61 12
-14 51 -10 51 5 0 5 -9 18 -20 29 -29 29 -90 27 -120 -4z"/>
<path d="M5267 2102 c-10 -10 -17 -24 -17 -30 0 -15 36 -16 45 -2 8 13 42 13
50 1 3 -6 -16 -16 -42 -23 -37 -11 -50 -20 -57 -40 -14 -39 14 -68 64 -68 58
0 79 24 81 92 2 35 -3 63 -11 72 -18 23 -92 21 -113 -2z m83 -91 c0 -16 -30
-33 -46 -27 -13 5 -14 9 -4 21 13 16 50 21 50 6z"/>
<path d="M5610 2100 c-49 -49 -12 -160 53 -160 62 1 97 36 97 100 0 69 -101
109 -150 60z m88 -32 c16 -16 15 -50 -1 -72 -18 -24 -55 -13 -63 19 -12 47 33
84 64 53z"/>
<path d="M1370 1623 c-12 -16 -44 -52 -72 -81 l-50 -53 -46 35 c-25 20 -51 36
-58 36 -15 0 -64 -57 -64 -74 0 -7 35 -42 78 -77 94 -79 98 -82 115 -72 22 13
217 234 217 246 0 20 -54 67 -76 67 -13 0 -32 -12 -44 -27z m80 -46 c0 -2 -12
-14 -27 -28 l-28 -24 24 28 c23 25 31 32 31 24z m-336 -93 c3 -8 2 -12 -4 -9
-6 3 -10 10 -10 16 0 14 7 11 14 -7z m236 -17 c0 -2 -10 -12 -22 -23 l-23 -19
19 23 c18 21 26 27 26 19z m-90 -100 c0 -9 -36 9 -44 22 -4 5 5 4 19 -2 14 -7
25 -16 25 -20z"/>
<path d="M4310 1325 c0 -90 4 -145 10 -145 6 0 10 55 10 145 0 90 -4 145 -10
145 -6 0 -10 -55 -10 -145z"/>
<path d="M4390 1325 c0 -90 4 -145 10 -145 6 0 10 55 10 145 0 90 -4 145 -10
145 -6 0 -10 -55 -10 -145z"/>
<path d="M4420 1325 c0 -90 4 -145 10 -145 6 0 10 55 10 145 0 90 -4 145 -10
145 -6 0 -10 -55 -10 -145z"/>
<path d="M4470 1326 c0 -91 4 -146 10 -146 6 0 10 53 10 139 0 83 -4 142 -10
146 -6 4 -10 -45 -10 -139z"/>
<path d="M4560 1325 c0 -90 4 -145 10 -145 6 0 10 55 10 145 0 90 -4 145 -10
145 -6 0 -10 -55 -10 -145z"/>
<path d="M4640 1325 c0 -90 4 -145 10 -145 6 0 10 55 10 145 0 90 -4 145 -10
145 -6 0 -10 -55 -10 -145z"/>
<path d="M4670 1325 c0 -90 4 -145 10 -145 6 0 10 55 10 145 0 90 -4 145 -10
145 -6 0 -10 -55 -10 -145z"/>
<path d="M4720 1326 c0 -91 4 -146 10 -146 6 0 10 53 10 139 0 83 -4 142 -10
146 -6 4 -10 -45 -10 -139z"/>
<path d="M4830 1326 c0 -91 4 -146 10 -146 6 0 10 53 10 139 0 83 -4 142 -10
146 -6 4 -10 -45 -10 -139z"/>
<path d="M4860 1325 c0 -90 4 -145 10 -145 6 0 10 55 10 145 0 90 -4 145 -10
145 -6 0 -10 -55 -10 -145z"/>
<path d="M4920 1325 c0 -90 4 -145 10 -145 6 0 10 55 10 145 0 90 -4 145 -10
145 -6 0 -10 -55 -10 -145z"/>
<path d="M4970 1326 c0 -91 4 -146 10 -146 6 0 10 53 10 139 0 83 -4 142 -10
146 -6 4 -10 -45 -10 -139z"/>
<path d="M41 1133 c8 -10 46 -55 86 -99 40 -45 73 -86 73 -91 0 -5 -34 -45
-75 -89 -41 -43 -75 -82 -75 -86 0 -5 63 -8 140 -8 128 0 139 1 133 18 -5 13
0 11 20 -7 23 -21 27 -22 33 -7 11 28 -3 46 -36 46 l-30 0 0 170 0 170 -141 0
c-133 0 -141 -1 -128 -17z"/>
<path d="M4336 1143 c-3 -3 -6 -19 -6 -35 0 -25 4 -29 23 -26 15 2 22 10 23
26 1 22 -27 47 -40 35z m24 -43 c0 -5 -4 -10 -10 -10 -5 0 -10 5 -10 10 0 6 5
10 10 10 6 0 10 -4 10 -10z"/>
<path d="M4460 1129 c-10 -17 -9 -24 3 -36 8 -9 20 -12 26 -9 16 10 14 41 -3
55 -12 10 -17 8 -26 -10z m30 -13 c0 -8 -4 -17 -9 -20 -10 -7 -23 19 -14 28
11 11 23 6 23 -8z"/>
<path d="M4717 1143 c-4 -3 -7 -19 -7 -35 0 -20 5 -28 18 -28 14 0 15 2 2 10
-13 9 -13 11 0 20 12 8 12 10 1 10 -11 0 -11 3 -1 15 12 14 0 22 -13 8z"/>
<path d="M4854 1143 c-6 -2 -8 -17 -5 -36 l5 -32 7 35 c8 39 8 39 -7 33z"/>
<path d="M4959 1134 c-15 -18 -1 -49 22 -49 19 0 23 39 6 53 -11 10 -17 9 -28
-4z m31 -18 c0 -8 -4 -17 -9 -20 -10 -7 -23 19 -14 28 11 11 23 6 23 -8z"/>
<path d="M2270 972 l0 -169 -30 5 c-28 4 -30 2 -30 -29 l0 -32 26 24 c18 17
23 19 18 6 -6 -16 6 -17 142 -17 l148 0 -30 33 c-89 95 -134 150 -134 161 0 7
21 34 46 62 25 27 60 66 76 87 l30 37 -131 0 -131 0 0 -168z"/>
<path d="M4581 1113 c-1 -28 3 -33 21 -33 19 0 20 1 6 13 -9 6 -18 21 -21 32
-3 13 -5 8 -6 -12z"/>
<path d="M3057 853 c-9 -8 -9 -430 -1 -461 l6 -22 420 2 419 3 -1 228 c0 125
-3 234 -6 242 -5 13 -62 15 -418 15 -227 0 -416 -3 -419 -7z m310 -112 c4 -2
-95 -233 -104 -242 -6 -6 -23 -9 -38 -7 -27 3 -30 8 -58 115 -26 100 -32 113
-56 122 -22 8 -18 10 31 10 55 1 58 0 64 -26 19 -90 29 -122 34 -116 4 5 17
37 30 73 13 36 27 67 31 70 6 5 57 5 66 1z m88 -7 c0 -26 -29 -202 -36 -221
-8 -22 -52 -33 -62 -15 -5 7 28 214 37 237 5 13 61 12 61 -1z m179 10 c9 -3
16 -17 16 -30 0 -22 -4 -24 -44 -24 -25 0 -47 -4 -51 -9 -3 -5 14 -22 37 -38
35 -23 44 -35 46 -64 4 -45 -30 -78 -86 -86 -60 -8 -92 3 -92 31 0 31 7 36 40
26 35 -10 70 -2 70 15 0 7 -18 24 -39 38 -45 30 -56 53 -41 91 15 41 95 69
144 50z m206 -121 c13 -65 23 -120 22 -123 -1 -3 -13 -6 -27 -8 -20 -3 -28 2
-32 17 -8 30 -77 30 -93 1 -11 -20 -70 -30 -70 -12 0 10 68 178 86 215 12 22
21 27 53 27 l38 0 23 -117z"/>
<path d="M3751 629 c-15 -44 -14 -49 9 -49 15 0 20 7 20 28 0 46 -16 58 -29
21z"/>
<path d="M4145 832 c-193 -92 -179 -357 22 -443 61 -26 95 -24 167 11 l63 29
57 -29 c72 -38 111 -38 185 0 86 43 124 101 127 195 l3 70 -8 -56 c-5 -31 -19
-75 -31 -97 -66 -117 -233 -148 -330 -62 -30 27 -32 30 -12 30 12 0 22 5 22
11 0 7 -11 9 -30 6 -18 -4 -30 -2 -30 4 0 6 15 10 33 9 54 -3 55 3 2 10 l-50
7 53 1 c74 3 65 22 -10 23 -35 0 -58 3 -51 6 10 3 10 9 0 24 -6 10 -16 19 -21
19 -4 0 -3 -6 3 -14 9 -10 8 -15 -3 -19 -9 -4 -18 -2 -21 3 -4 6 -13 7 -23 2
-20 -10 -108 -9 -118 1 -4 4 -13 2 -21 -4 -10 -9 -13 -7 -13 11 l0 22 -19 -23
-20 -24 -9 24 -9 25 -6 -25 c-4 -15 -10 -20 -16 -14 -6 7 -6 27 0 58 8 35 15
47 29 47 11 0 20 -9 23 -22 l4 -23 8 23 c11 34 45 29 45 -7 0 -25 3 -28 23
-23 18 5 19 7 5 10 -41 8 -13 20 47 20 60 0 88 -12 48 -20 -15 -3 -15 -4 0
-16 14 -12 17 -9 23 23 5 26 11 35 23 32 9 -2 15 -9 14 -15 -4 -16 14 -16 19
0 3 7 24 11 56 10 29 0 52 3 52 9 0 5 -30 10 -67 11 l-68 2 63 3 c78 5 82 22
5 25 l-58 2 53 3 c62 5 70 22 10 25 l-43 1 38 4 c39 4 42 23 4 23 -16 0 -18 3
-8 9 10 6 1 16 -35 37 -62 36 -142 43 -199 16z"/>
<path d="M5301 818 c4 -58 -1 -76 -18 -81 -10 -3 -2 -6 17 -7 19 -1 42 -3 50
-4 8 -2 30 -3 48 -4 33 -2 33 -2 30 -49 l-3 -48 -119 -2 c-65 -2 -121 -5 -124
-8 -3 -3 56 -5 131 -5 l136 0 -1 -50 -1 -50 -129 0 c-96 0 -128 3 -128 13 0 8
-3 9 -8 1 -11 -18 -177 -28 -204 -12 -13 7 -27 11 -32 10 -4 -2 -14 5 -22 15
-12 16 -13 6 -14 -74 l0 -93 275 0 275 0 0 234 c0 267 8 246 -97 246 l-65 0 3
-32z"/>
<path d="M6300 615 l0 -215 -355 0 c-309 0 -355 -2 -355 -15 0 -13 47 -15 360
-15 l360 0 0 230 c0 127 -2 230 -5 230 -3 0 -5 -97 -5 -215z"/>
<path d="M5918 800 c68 -42 75 -142 11 -178 -46 -27 -34 -35 41 -30 80 6 114
24 137 73 14 29 14 41 4 75 -18 60 -56 80 -151 80 l-75 0 33 -20z"/>
<path d="M600 798 c0 -26 62 -119 120 -181 105 -112 268 -210 461 -278 l96
-33 114 47 c122 50 273 135 272 152 -2 18 20 36 38 32 19 -5 95 54 151 118 37
42 98 133 98 147 0 4 -304 8 -675 8 -533 0 -675 -3 -675 -12z m551 -131 c54
-36 52 -103 -4 -137 -69 -42 -191 -17 -219 45 -39 86 129 155 223 92z m451 1
c14 3 26 -1 34 -13 12 -16 11 -21 -2 -36 -13 -14 -21 -16 -36 -8 -13 7 -23 7
-31 0 -8 -6 -18 -6 -27 -1 -8 5 -21 5 -30 0 -9 -5 -22 -5 -29 -1 -7 4 -23 6
-37 3 -18 -3 -26 1 -33 19 l-10 24 0 -23 c-1 -21 -5 -22 -56 -21 -48 2 -55 5
-56 23 -2 20 -2 20 -6 -1 -2 -13 -9 -23 -14 -23 -5 0 -9 10 -10 23 0 22 0 22
-10 -2 -12 -30 -34 -14 -25 17 6 19 15 20 167 19 114 0 163 3 172 12 9 10 13
9 15 -2 2 -10 10 -13 24 -9z m-52 -98 c14 -25 -23 -58 -45 -40 -12 10 -15 10
-15 -3 0 -16 -26 -30 -41 -21 -5 3 -9 12 -9 20 0 12 -4 12 -21 4 -13 -8 -24
-8 -32 -2 -8 7 -18 6 -31 -4 -11 -8 -23 -14 -28 -14 -9 0 -11 63 -3 72 3 2 52
5 110 5 90 0 107 -3 115 -17z"/>
<path d="M995 670 c-31 -12 5 -23 38 -11 16 6 37 7 59 0 46 -13 56 -11 34 6
-21 16 -98 19 -131 5z"/>
<path d="M947 644 c-4 -4 -7 -10 -7 -14 0 -10 48 -30 72 -30 12 0 30 -7 40
-17 15 -14 22 -14 42 -3 l24 12 -26 23 c-22 19 -30 21 -50 12 -17 -8 -25 -8
-30 0 -9 14 -55 26 -65 17z"/>
<path d="M1106 624 c21 -18 32 -20 46 -13 31 16 15 33 -31 34 l-44 1 29 -22z"/>
<path d="M940 591 c0 -17 51 -50 86 -57 50 -9 103 4 132 33 36 36 12 42 -31 9
-44 -34 -90 -34 -133 -1 -34 26 -54 32 -54 16z"/>
<path d="M1010 581 c0 -5 7 -12 16 -15 24 -9 28 -7 14 9 -14 17 -30 20 -30 6z"/>
<path d="M1430 640 c0 -5 6 -10 14 -10 8 0 18 5 21 10 3 6 -3 10 -14 10 -12 0
-21 -4 -21 -10z"/>
<path d="M1540 640 c0 -5 5 -10 10 -10 6 0 10 5 10 10 0 6 -4 10 -10 10 -5 0
-10 -4 -10 -10z"/>
<path d="M1600 640 c0 -5 5 -10 10 -10 6 0 10 5 10 10 0 6 -4 10 -10 10 -5 0
-10 -4 -10 -10z"/>
<path d="M1340 560 c0 -5 5 -10 10 -10 6 0 10 5 10 10 0 6 -4 10 -10 10 -5 0
-10 -4 -10 -10z"/>
<path d="M1450 560 c0 -5 5 -10 10 -10 6 0 10 5 10 10 0 6 -4 10 -10 10 -5 0
-10 -4 -10 -10z"/>
<path d="M1510 560 c0 -5 5 -10 10 -10 6 0 10 5 10 10 0 6 -4 10 -10 10 -5 0
-10 -4 -10 -10z"/>
<path d="M5817 752 c-28 -31 -15 -102 18 -102 12 0 15 14 15 60 0 63 -7 71
-33 42z"/>
<path d="M5890 710 c0 -66 12 -76 39 -29 12 22 12 29 0 54 -25 52 -39 43 -39
-25z"/>
<path d="M5355 690 c3 -5 8 -10 11 -10 2 0 4 5 4 10 0 6 -5 10 -11 10 -5 0 -7
-4 -4 -10z"/>
<path d="M5387 659 c7 -7 15 -10 18 -7 3 3 -2 9 -12 12 -14 6 -15 5 -6 -5z"/>
<path d="M4380 651 c0 -6 5 -13 10 -16 6 -3 10 1 10 9 0 9 -4 16 -10 16 -5 0
-10 -4 -10 -9z"/>
<path d="M4427 610 c-3 -11 -2 -20 3 -20 4 0 10 9 13 20 3 11 2 20 -3 20 -4 0
-10 -9 -13 -20z"/>
<path d="M4210 600 c0 -5 10 -10 23 -10 18 0 19 2 7 10 -19 13 -30 13 -30 0z"/>
<path d="M4358 593 c6 -2 18 -2 25 0 6 3 1 5 -13 5 -14 0 -19 -2 -12 -5z"/>
<path d="M4420 570 c0 -5 7 -10 15 -10 8 0 15 5 15 10 0 6 -7 10 -15 10 -8 0
-15 -4 -15 -10z"/>
<path d="M5711 549 c-13 -38 -13 -39 -2 -39 9 0 24 60 17 67 -2 2 -9 -10 -15
-28z"/>
<path d="M6142 560 c0 -14 2 -19 5 -12 2 6 2 18 0 25 -3 6 -5 1 -5 -13z"/>
<path d="M5758 545 c-6 -28 3 -32 21 -11 8 10 8 16 -3 25 -11 9 -15 6 -18 -14z"/>
<path d="M5997 563 c-9 -9 -9 -41 1 -46 4 -3 7 8 8 24 1 31 1 32 -9 22z"/>
<path d="M5807 543 c-4 -3 -7 -13 -7 -22 1 -13 3 -13 11 2 11 19 8 33 -4 20z"/>
<path d="M5832 530 c0 -14 2 -19 5 -12 2 6 2 18 0 25 -3 6 -5 1 -5 -13z"/>
<path d="M5893 528 c-2 -18 0 -20 7 -8 12 18 13 30 2 30 -4 0 -9 -10 -9 -22z"/>
<path d="M5936 537 c3 -10 9 -15 12 -12 3 3 0 11 -7 18 -10 9 -11 8 -5 -6z"/>
<path d="M6166 533 c-6 -14 -5 -15 5 -6 7 7 10 15 7 18 -3 3 -9 -2 -12 -12z"/>
<path d="M4991 524 c0 -11 3 -14 6 -6 3 7 2 16 -1 19 -3 4 -6 -2 -5 -13z"/>
<path d="M5850 525 c0 -8 2 -15 4 -15 2 0 6 7 10 15 3 8 1 15 -4 15 -6 0 -10
-7 -10 -15z"/>
<path d="M6110 527 c0 -10 8 -17 18 -17 9 0 13 4 7 8 -5 4 -13 11 -17 16 -5 5
-8 2 -8 -7z"/>
<path d="M1730 514 c0 -5 7 -18 15 -28 12 -16 15 -17 15 -4 0 8 -7 21 -15 28
-8 7 -15 9 -15 4z"/>
<path d="M5690 478 c0 -7 -3 -24 -6 -38 -4 -18 -3 -21 4 -10 17 27 24 60 13
60 -6 0 -11 -6 -11 -12z"/>
<path d="M6198 483 c7 -3 16 -2 19 1 4 3 -2 6 -13 5 -11 0 -14 -3 -6 -6z"/>
<path d="M5827 451 c-4 -17 -3 -21 5 -13 5 5 8 16 6 23 -3 8 -7 3 -11 -10z"/>
<path d="M5860 451 c0 -25 6 -27 13 -6 4 8 2 17 -3 20 -6 4 -10 -3 -10 -14z"/>
<path d="M5783 445 c-3 -9 -3 -18 -1 -21 3 -3 8 4 11 16 6 23 -1 27 -10 5z"/>
<path d="M6003 444 c0 -8 6 -14 14 -14 7 0 13 4 13 9 0 5 -6 11 -13 14 -8 3
-14 -1 -14 -9z"/>
<path d="M6060 445 c0 -8 5 -15 10 -15 6 0 10 7 10 15 0 8 -4 15 -10 15 -5 0
-10 -7 -10 -15z"/>
<path d="M6110 440 c-13 -8 -12 -10 3 -10 9 0 17 5 17 10 0 12 -1 12 -20 0z"/>
<path d="M5730 436 c0 -9 30 -14 35 -6 4 6 -3 10 -14 10 -12 0 -21 -2 -21 -4z"/>
<path d="M1755 389 c-9 -14 -2 -20 14 -10 8 6 9 11 3 15 -6 3 -14 1 -17 -5z"/>
<path d="M1728 353 c6 -2 18 -2 25 0 6 3 1 5 -13 5 -14 0 -19 -2 -12 -5z"/>
<path d="M1780 329 c0 -5 5 -7 10 -4 6 3 10 8 10 11 0 2 -4 4 -10 4 -5 0 -10
-5 -10 -11z"/>
<path d="M1728 323 c6 -2 18 -2 25 0 6 3 1 5 -13 5 -14 0 -19 -2 -12 -5z"/>
<path d="M1785 300 c-3 -6 1 -7 9 -4 18 7 21 14 7 14 -6 0 -13 -4 -16 -10z"/>
<path d="M1723 293 c9 -2 23 -2 30 0 6 3 -1 5 -18 5 -16 0 -22 -2 -12 -5z"/>
<path d="M1701 266 c12 -10 59 -15 59 -6 0 5 -14 10 -32 10 -17 0 -29 -2 -27
-4z"/>
<path d="M1705 230 c44 -11 67 -11 60 0 -3 6 -25 9 -48 9 -40 -1 -40 -2 -12
-9z"/>
</g>
</svg>
